<?xml version="1.0" encoding="utf-8"?>
<svg version="1.1" xmlns:xlink="http://www.w3.org/1999/xlink" width="20px" height="20px" xmlns="http://www.w3.org/2000/svg">
  <g transform="matrix(1 0 0 1 -23 -31 )">
    <path d="M 33 31  C 38.6 31  43 35.4  43 41  C 43 46.6  38.6 51  33 51  C 27.4 51  23 46.6  23 41  C 23 35.4  27.4 31  33 31  Z " fill-rule="nonzero" fill="#ffff00" stroke="none" />
    <path d="M 33 31.5  C 38.32 31.5  42.5 35.68  42.5 41  C 42.5 46.32  38.32 50.5  33 50.5  C 27.68 50.5  23.5 46.32  23.5 41  C 23.5 35.68  27.68 31.5  33 31.5  Z " stroke-width="1" stroke="#797979" fill="none" />
  </g>
</svg>