<?xml version="1.0" encoding="utf-8"?>
<svg version="1.1" xmlns:xlink="http://www.w3.org/1999/xlink" width="20px" height="20px" xmlns="http://www.w3.org/2000/svg">
  <g transform="matrix(1 0 0 1 -23 -137 )">
    <path d="M 33 137  C 38.6 137  43 141.4  43 147  C 43 152.6  38.6 157  33 157  C 27.4 157  23 152.6  23 147  C 23 141.4  27.4 137  33 137  Z " fill-rule="nonzero" fill="#00ff00" stroke="none" />
    <path d="M 33 137.5  C 38.32 137.5  42.5 141.68  42.5 147  C 42.5 152.32  38.32 156.5  33 156.5  C 27.68 156.5  23.5 152.32  23.5 147  C 23.5 141.68  27.68 137.5  33 137.5  Z " stroke-width="1" stroke="#797979" fill="none" />
  </g>
</svg>